<svg xmlns="http://www.w3.org/2000/svg" xmlns:xlink="http://www.w3.org/1999/xlink" version="1.1" viewBox="38.35 45.19 118.42 22.63">
<g id="surface1">
<path style=" stroke:none;fill-rule:nonzero;fill:rgb(0%,0%,0%);fill-opacity:1;" d="M 48.4375 45.253906 C 48.355469 45.273438 47.925781 45.347656 47.5 45.410156 C 44.9375 45.828125 42.105469 47.605469 40.574219 49.75 C 37.605469 53.914062 37.605469 59.085938 40.574219 63.25 C 41.75 64.902344 43.886719 66.472656 45.90625 67.183594 C 47.15625 67.613281 47.824219 67.707031 50.113281 67.769531 L 52.363281 67.820312 L 50.96875 65.015625 L 49.574219 62.203125 L 48.824219 62.085938 C 47.394531 61.855469 46.542969 61.429688 45.5625 60.414062 C 43.40625 58.226562 43.4375 54.710938 45.613281 52.535156 C 46.425781 51.71875 47.09375 51.339844 48.1875 51.058594 C 48.925781 50.859375 49.34375 50.851562 53.792969 50.851562 C 59.144531 50.851562 59.375 50.871094 60.636719 51.539062 C 62.261719 52.398438 63.53125 54.375 63.542969 56.050781 L 63.542969 56.5 L 69.167969 56.5 L 69.167969 55.945312 C 69.167969 54.011719 68.261719 51.476562 66.949219 49.730469 C 65.636719 47.984375 63.707031 46.550781 61.761719 45.871094 C 60.011719 45.273438 60.074219 45.273438 54.113281 45.242188 C 51.082031 45.230469 48.519531 45.230469 48.4375 45.253906 Z M 48.4375 45.253906 "/>
<path style=" stroke:none;fill-rule:nonzero;fill:rgb(0%,0%,0%);fill-opacity:1;" d="M 69.269531 45.230469 C 69.269531 45.273438 69.886719 46.539062 70.636719 48.054688 L 71.988281 50.828125 L 72.625 50.890625 C 76.542969 51.339844 78.800781 55.652344 76.949219 59.15625 C 76.519531 59.984375 75.4375 61.0625 74.613281 61.5 C 73.46875 62.109375 73.074219 62.148438 67.761719 62.148438 C 63.894531 62.148438 62.84375 62.117188 62.3125 61.992188 C 59.988281 61.4375 58.03125 59.148438 58.019531 56.9375 L 58.019531 56.5 L 52.394531 56.5 L 52.394531 57.097656 C 52.40625 59.011719 53.34375 61.617188 54.613281 63.28125 C 56.4375 65.65625 58.980469 67.191406 61.863281 67.652344 C 63.332031 67.882812 73.34375 67.820312 74.386719 67.570312 C 78.199219 66.648438 81.25 63.9375 82.550781 60.320312 C 83.03125 58.96875 83.175781 58.101562 83.175781 56.5 C 83.175781 54.867188 83.03125 54.011719 82.542969 52.660156 C 81.886719 50.890625 81 49.542969 79.65625 48.277344 C 78.175781 46.882812 76.363281 45.902344 74.40625 45.449219 C 73.707031 45.292969 69.269531 45.105469 69.269531 45.230469 Z M 69.269531 45.230469 "/>
<path style=" stroke:none;fill-rule:nonzero;fill:rgb(0%,0%,0%);fill-opacity:1;" d="M 89.582031 53.664062 C 89.03125 53.84375 88.46875 54.199219 88.050781 54.636719 C 86.71875 56.019531 86.707031 58.183594 88.03125 59.542969 C 88.96875 60.507812 90.292969 60.882812 91.511719 60.539062 C 92.207031 60.328125 92.511719 60.160156 93.050781 59.648438 C 93.386719 59.335938 93.957031 58.4375 93.957031 58.226562 C 93.957031 58.195312 93.59375 58.175781 93.144531 58.175781 C 92.363281 58.175781 92.324219 58.183594 92.105469 58.488281 C 91.78125 58.917969 91.144531 59.21875 90.574219 59.21875 C 88.761719 59.21875 87.894531 56.773438 89.261719 55.527344 C 90.125 54.742188 91.34375 54.804688 92.082031 55.671875 C 92.332031 55.976562 92.375 55.988281 93.15625 55.957031 L 93.957031 55.925781 L 93.730469 55.453125 C 93.425781 54.847656 92.75 54.1875 92.113281 53.882812 C 91.574219 53.621094 90.09375 53.496094 89.582031 53.664062 Z M 89.582031 53.664062 "/>
<path style=" stroke:none;fill-rule:nonzero;fill:rgb(0%,0%,0%);fill-opacity:1;" d="M 99.03125 53.726562 C 98.449219 53.945312 97.699219 54.53125 97.332031 55.054688 C 96.34375 56.425781 96.457031 58.207031 97.613281 59.480469 C 98.363281 60.296875 99.082031 60.632812 100.15625 60.632812 C 100.894531 60.632812 101.074219 60.589844 101.6875 60.289062 C 102.457031 59.910156 103.0625 59.292969 103.449219 58.507812 C 103.644531 58.109375 103.699219 57.839844 103.699219 57.128906 C 103.699219 56.375 103.65625 56.15625 103.417969 55.664062 C 103.0625 54.953125 102.40625 54.261719 101.71875 53.90625 C 101.074219 53.570312 99.675781 53.476562 99.03125 53.726562 Z M 100.738281 55.148438 C 101.699219 55.476562 102.238281 56.257812 102.167969 57.242188 C 102.113281 57.902344 101.832031 58.382812 101.230469 58.824219 C 100.730469 59.167969 99.667969 59.167969 99.144531 58.8125 C 98.0625 58.058594 97.875 56.71875 98.738281 55.757812 C 99.292969 55.140625 100.03125 54.910156 100.738281 55.148438 Z M 100.738281 55.148438 "/>
<path style=" stroke:none;fill-rule:nonzero;fill:rgb(0%,0%,0%);fill-opacity:1;" d="M 107.5 53.75 C 107.5 53.800781 107.21875 55.285156 106.875 57.074219 C 106.53125 58.855469 106.25 60.382812 106.25 60.445312 C 106.25 60.539062 106.480469 60.582031 107.0625 60.582031 L 107.886719 60.582031 L 108.21875 58.5625 C 108.40625 57.460938 108.582031 56.386719 108.636719 56.1875 C 108.699219 55.863281 108.78125 56.09375 109.375 58.195312 L 110.042969 60.582031 L 110.800781 60.582031 C 111.542969 60.582031 111.5625 60.570312 111.625 60.289062 C 111.824219 59.523438 112.90625 55.832031 112.917969 55.925781 C 112.917969 55.976562 113.105469 57.042969 113.3125 58.277344 L 113.699219 60.527344 L 114.550781 60.558594 C 115.324219 60.589844 115.394531 60.570312 115.355469 60.402344 C 115.332031 60.296875 115.050781 58.84375 114.730469 57.179688 C 114.417969 55.507812 114.125 54.042969 114.09375 53.90625 C 114.042969 53.683594 113.988281 53.675781 113.125 53.675781 L 112.21875 53.675781 L 111.71875 55.371094 C 110.988281 57.882812 110.824219 58.402344 110.78125 58.363281 C 110.761719 58.351562 110.480469 57.429688 110.15625 56.34375 C 109.832031 55.246094 109.519531 54.199219 109.46875 54.011719 L 109.355469 53.675781 L 108.425781 53.675781 C 107.917969 53.675781 107.5 53.707031 107.5 53.75 Z M 107.5 53.75 "/>
<path style=" stroke:none;fill-rule:nonzero;fill:rgb(0%,0%,0%);fill-opacity:1;" d="M 118.125 57.128906 L 118.125 60.582031 L 119.738281 60.582031 C 121.46875 60.582031 121.886719 60.496094 122.375 60.027344 C 122.863281 59.566406 123.074219 58.800781 122.90625 58.144531 C 122.78125 57.671875 122.261719 57.042969 121.917969 56.960938 C 121.636719 56.886719 121.59375 56.761719 121.824219 56.679688 C 121.90625 56.636719 122.074219 56.417969 122.199219 56.175781 C 122.625 55.316406 122.300781 54.3125 121.457031 53.882812 C 121.105469 53.707031 120.84375 53.675781 119.582031 53.675781 L 118.125 53.675781 Z M 120.675781 55.085938 C 121.21875 55.621094 120.855469 56.375 120.042969 56.425781 L 119.636719 56.449219 L 119.605469 55.632812 L 119.574219 54.824219 L 120 54.824219 C 120.3125 54.824219 120.488281 54.890625 120.675781 55.085938 Z M 121.03125 57.859375 C 121.136719 57.914062 121.28125 58.089844 121.34375 58.257812 C 121.613281 58.917969 121 59.480469 120.074219 59.410156 L 119.636719 59.378906 L 119.605469 58.5625 L 119.574219 57.753906 L 120.207031 57.753906 C 120.5625 57.753906 120.925781 57.796875 121.03125 57.859375 Z M 121.03125 57.859375 "/>
<path style=" stroke:none;fill-rule:nonzero;fill:rgb(0%,0%,0%);fill-opacity:1;" d="M 125.730469 57.128906 L 125.730469 60.582031 L 127.292969 60.582031 L 127.292969 53.675781 L 125.730469 53.675781 Z M 125.730469 57.128906 "/>
<path style=" stroke:none;fill-rule:nonzero;fill:rgb(0%,0%,0%);fill-opacity:1;" d="M 130.519531 57.128906 L 130.519531 60.582031 L 134.480469 60.582031 L 134.480469 59.21875 L 132.082031 59.21875 L 132.082031 53.675781 L 130.519531 53.675781 Z M 130.519531 57.128906 "/>
<path style=" stroke:none;fill-rule:nonzero;fill:rgb(0%,0%,0%);fill-opacity:1;" d="M 137.5 57.128906 L 137.5 60.582031 L 139.0625 60.582031 L 139.0625 53.675781 L 137.5 53.675781 Z M 137.5 57.128906 "/>
<path style=" stroke:none;fill-rule:nonzero;fill:rgb(0%,0%,0%);fill-opacity:1;" d="M 142.292969 57.128906 L 142.292969 60.582031 L 143.855469 60.582031 L 143.875 58.488281 L 143.90625 56.386719 L 145.050781 58.476562 L 146.199219 60.570312 L 146.957031 60.582031 L 147.707031 60.582031 L 147.707031 53.675781 L 146.25 53.675781 L 146.25 55.789062 C 146.25 56.949219 146.21875 57.859375 146.175781 57.816406 C 146.125 57.777344 145.59375 56.835938 144.988281 55.734375 L 143.886719 53.726562 L 143.09375 53.695312 L 142.292969 53.664062 Z M 142.292969 57.128906 "/>
<path style=" stroke:none;fill-rule:nonzero;fill:rgb(0%,0%,0%);fill-opacity:1;" d="M 151.042969 57.128906 L 151.042969 60.582031 L 152.488281 60.582031 L 152.519531 59.03125 L 152.550781 57.492188 L 153.636719 59.03125 L 154.71875 60.582031 L 156.769531 60.582031 L 155.875 59.449219 C 154.21875 57.367188 154.050781 57.128906 154.125 56.992188 C 154.167969 56.929688 154.738281 56.175781 155.386719 55.316406 C 156.03125 54.46875 156.5625 53.75 156.5625 53.71875 C 156.5625 53.695312 156.136719 53.683594 155.605469 53.695312 L 154.644531 53.726562 L 153.59375 55.222656 L 152.550781 56.71875 L 152.519531 55.191406 L 152.488281 53.675781 L 151.042969 53.675781 Z M 151.042969 57.128906 "/>
</g>
</svg>